<svg xmlns="http://www.w3.org/2000/svg" viewBox="0 0 640 360" role="img" aria-labelledby="title">
  <title id="title">Audience applauding at an event</title>
  <rect width="640" height="360" fill="#111827"/>
  <rect y="0" width="640" height="120" fill="#002050"/>
  <g fill="#f2f2f2">
    <circle cx="86" cy="132" r="28"/>
    <circle cx="184" cy="126" r="30"/>
    <circle cx="294" cy="134" r="32"/>
    <circle cx="406" cy="124" r="30"/>
    <circle cx="516" cy="136" r="34"/>
  </g>
  <g fill="#8bd1ff">
    <path d="M34 218c28-50 76-50 104 0v110H34z"/>
    <path d="M132 218c32-54 84-54 116 0v110H132z"/>
    <path d="M238 220c34-58 90-58 124 0v108H238z"/>
    <path d="M354 216c32-54 84-54 116 0v112H354z"/>
    <path d="M462 224c36-62 96-62 132 0v104H462z"/>
  </g>
  <g stroke="#f9d8b6" stroke-linecap="round" stroke-width="18">
    <path d="m132 194 40 28"/>
    <path d="m214 198-40 24"/>
    <path d="m358 198 44 28"/>
    <path d="m444 202-42 24"/>
  </g>
</svg>
