<svg xmlns="http://www.w3.org/2000/svg" viewBox="0 0 640 360" role="img" aria-labelledby="title">
  <title id="title">Professional smiling in a workshop space</title>
  <rect width="640" height="360" fill="#eef2f5"/>
  <rect y="0" width="640" height="98" fill="#cfd6dc"/>
  <rect x="450" y="120" width="190" height="180" fill="#e6edf2"/>
  <rect x="58" y="104" width="110" height="170" fill="#dce5ec"/>
  <circle cx="296" cy="118" r="54" fill="#5c3a2e"/>
  <path fill="#7d513c" d="M250 144c26 28 66 28 92 0v34c-26 24-66 24-92 0z"/>
  <path fill="#d8f0e5" d="M168 248c54-74 202-74 256 0v112H168z"/>
  <path fill="#1f2937" d="M238 98c20-48 98-50 120 0 12 26 0 68-60 70-54 2-72-38-60-70z"/>
  <g fill="#fff">
    <circle cx="276" cy="122" r="7"/>
    <circle cx="320" cy="122" r="7"/>
  </g>
</svg>
